<svg xmlns="http://www.w3.org/2000/svg" xmlns:xlink="http://www.w3.org/1999/xlink" width="1049pt" height="663pt" viewBox="0.00 0.00 1049.00 663.00">
<g id="graph0" class="graph" transform="scale(1 1) rotate(0) translate(4 658.8)">
<title>WhoKnows</title>
<polygon fill="white" stroke="none" points="-4,4 -4,-658.8 1045.4,-658.8 1045.4,4 -4,4"/>
<text xml:space="preserve" text-anchor="middle" x="520.7" y="-8.2" font-family="Times,serif" font-size="14.00">WhoKnows System Dependency Graph</text>
<!-- App -->
<g id="node1" class="node">
<title>App</title>
<path fill="lightblue" stroke="black" d="M295.48,-332.6C295.48,-332.6 194.22,-332.6 194.22,-332.6 188.22,-332.6 182.22,-326.6 182.22,-320.6 182.22,-320.6 182.22,-303 182.22,-303 182.22,-297 188.22,-291 194.22,-291 194.22,-291 295.48,-291 295.48,-291 301.48,-291 307.48,-297 307.48,-303 307.48,-303 307.48,-320.6 307.48,-320.6 307.48,-326.6 301.48,-332.6 295.48,-332.6"/>
<text xml:space="preserve" text-anchor="middle" x="244.85" y="-316" font-family="Times,serif" font-size="14.00">app.py</text>
<text xml:space="preserve" text-anchor="middle" x="244.85" y="-299.2" font-family="Times,serif" font-size="14.00">(Flask Application)</text>
</g>
<!-- Flask -->
<g id="node2" class="node">
<title>Flask</title>
<ellipse fill="lightgreen" stroke="black" cx="464.81" cy="-418.8" rx="53.69" ry="18"/>
<text xml:space="preserve" text-anchor="middle" x="464.81" y="-414.6" font-family="Times,serif" font-size="14.00">Flask 3.1.2</text>
</g>
<!-- App&#45;&gt;Flask -->
<g id="edge1" class="edge">
<title>App-&gt;Flask</title>
<path fill="none" stroke="black" d="M281.54,-332.9C295.14,-340.7 310.88,-349.42 325.48,-356.8 356.48,-372.46 392.28,-388.46 419.7,-400.27"/>
<polygon fill="black" stroke="black" points="418.18,-403.43 428.75,-404.15 420.93,-397 418.18,-403.43"/>
<text xml:space="preserve" text-anchor="middle" x="359.3" y="-392.76" font-family="Times,serif" font-size="14.00">imports</text>
</g>
<!-- SQLite3 -->
<g id="node5" class="node">
<title>SQLite3</title>
<ellipse fill="lightgreen" stroke="black" cx="464.81" cy="-349.8" rx="47.05" ry="29.42"/>
<text xml:space="preserve" text-anchor="middle" x="464.81" y="-354" font-family="Times,serif" font-size="14.00">sqlite3</text>
<text xml:space="preserve" text-anchor="middle" x="464.81" y="-337.2" font-family="Times,serif" font-size="14.00">(built-in)</text>
</g>
<!-- App&#45;&gt;SQLite3 -->
<g id="edge2" class="edge">
<title>App-&gt;SQLite3</title>
<path fill="none" stroke="black" d="M307.72,-322.59C339.19,-328.07 377.16,-334.69 407.76,-340.03"/>
<polygon fill="black" stroke="black" points="407.16,-343.48 417.61,-341.75 408.36,-336.58 407.16,-343.48"/>
<text xml:space="preserve" text-anchor="middle" x="359.3" y="-340.62" font-family="Times,serif" font-size="14.00">imports</text>
</g>
<!-- Hashlib -->
<g id="node6" class="node">
<title>Hashlib</title>
<ellipse fill="lightgreen" stroke="black" cx="464.81" cy="-272.8" rx="47.05" ry="29.42"/>
<text xml:space="preserve" text-anchor="middle" x="464.81" y="-277" font-family="Times,serif" font-size="14.00">hashlib</text>
<text xml:space="preserve" text-anchor="middle" x="464.81" y="-260.2" font-family="Times,serif" font-size="14.00">(built-in)</text>
</g>
<!-- App&#45;&gt;Hashlib -->
<g id="edge3" class="edge">
<title>App-&gt;Hashlib</title>
<path fill="none" stroke="black" d="M307.72,-300.73C339.33,-295.07 377.49,-288.25 408.16,-282.76"/>
<polygon fill="black" stroke="black" points="408.38,-286.27 417.61,-281.07 407.15,-279.38 408.38,-286.27"/>
<text xml:space="preserve" text-anchor="middle" x="359.3" y="-301.14" font-family="Times,serif" font-size="14.00">imports</text>
</g>
<!-- Database -->
<g id="node11" class="node">
<title>Database</title>
<path fill="yellow" stroke="black" d="M511.89,-606.2C511.89,-609.07 490.79,-611.4 464.81,-611.4 438.83,-611.4 417.72,-609.07 417.72,-606.2 417.72,-606.2 417.72,-559.4 417.72,-559.4 417.72,-556.53 438.83,-554.2 464.81,-554.2 490.79,-554.2 511.89,-556.53 511.89,-559.4 511.89,-559.4 511.89,-606.2 511.89,-606.2"/>
<path fill="none" stroke="black" d="M511.89,-606.2C511.89,-603.33 490.79,-601 464.81,-601 438.83,-601 417.72,-603.33 417.72,-606.2"/>
<text xml:space="preserve" text-anchor="middle" x="464.81" y="-587" font-family="Times,serif" font-size="14.00">whoknows.db</text>
<text xml:space="preserve" text-anchor="middle" x="464.81" y="-570.2" font-family="Times,serif" font-size="14.00">(SQLite)</text>
</g>
<!-- App&#45;&gt;Database -->
<g id="edge10" class="edge">
<title>App-&gt;Database</title>
<path fill="none" stroke="black" d="M262.95,-333.06C299.82,-378.9 387.18,-487.52 433.6,-545.24"/>
<polygon fill="black" stroke="black" points="430.74,-547.27 439.73,-552.87 436.19,-542.88 430.74,-547.27"/>
<text xml:space="preserve" text-anchor="middle" x="359.3" y="-491.61" font-family="Times,serif" font-size="14.00">reads/writes</text>
</g>
<!-- Templates -->
<g id="node15" class="node">
<title>Templates</title>
<polygon fill="lightgray" stroke="black" points="501.58,-222.8 498.58,-226.8 477.58,-226.8 474.58,-222.8 428.04,-222.8 428.04,-186.8 501.58,-186.8 501.58,-222.8"/>
<text xml:space="preserve" text-anchor="middle" x="464.81" y="-200.6" font-family="Times,serif" font-size="14.00">templates/</text>
</g>
<!-- App&#45;&gt;Templates -->
<g id="edge14" class="edge">
<title>App-&gt;Templates</title>
<path fill="none" stroke="black" d="M280.69,-290.7C294.46,-282.64 310.54,-273.57 325.48,-266 355.56,-250.75 390.28,-235.39 417.41,-223.88"/>
<polygon fill="black" stroke="black" points="418.54,-227.2 426.39,-220.09 415.82,-220.75 418.54,-227.2"/>
<text xml:space="preserve" text-anchor="middle" x="359.3" y="-270.2" font-family="Times,serif" font-size="14.00">renders</text>
</g>
<!-- Static -->
<g id="node20" class="node">
<title>Static</title>
<polygon fill="lightgray" stroke="black" points="491.81,-114.8 488.81,-118.8 467.81,-118.8 464.81,-114.8 437.81,-114.8 437.81,-78.8 491.81,-78.8 491.81,-114.8"/>
<text xml:space="preserve" text-anchor="middle" x="464.81" y="-92.6" font-family="Times,serif" font-size="14.00">static/</text>
</g>
<!-- App&#45;&gt;Static -->
<g id="edge19" class="edge">
<title>App-&gt;Static</title>
<path fill="none" stroke="black" d="M261.27,-290.64C276.6,-270.16 301.25,-238.7 325.48,-214 358.99,-179.83 401.49,-144.91 430.48,-122.18"/>
<polygon fill="black" stroke="black" points="432.45,-125.08 438.2,-116.17 428.15,-119.55 432.45,-125.08"/>
<text xml:space="preserve" text-anchor="middle" x="359.3" y="-218.2" font-family="Times,serif" font-size="14.00">serves</text>
</g>
<!-- Werkzeug -->
<g id="node3" class="node">
<title>Werkzeug</title>
<ellipse fill="lightgreen" stroke="black" cx="699.45" cy="-528.8" rx="72.44" ry="18"/>
<text xml:space="preserve" text-anchor="middle" x="699.45" y="-524.6" font-family="Times,serif" font-size="14.00">Werkzeug 3.1.5</text>
</g>
<!-- Flask&#45;&gt;Werkzeug -->
<g id="edge4" class="edge">
<title>Flask-&gt;Werkzeug</title>
<path fill="none" stroke="black" d="M483.39,-436.03C496.95,-448.52 516.69,-465.04 536.5,-475.8 566.95,-492.33 603.43,-504.83 634.06,-513.53"/>
<polygon fill="black" stroke="black" points="633.03,-516.87 643.6,-516.16 634.89,-510.12 633.03,-516.87"/>
<text xml:space="preserve" text-anchor="middle" x="568.19" y="-505.88" font-family="Times,serif" font-size="14.00">depends on</text>
</g>
<!-- Jinja2 -->
<g id="node4" class="node">
<title>Jinja2</title>
<ellipse fill="lightgreen" stroke="black" cx="699.45" cy="-474.8" rx="55.83" ry="18"/>
<text xml:space="preserve" text-anchor="middle" x="699.45" y="-470.6" font-family="Times,serif" font-size="14.00">Jinja2 3.1.6</text>
</g>
<!-- Flask&#45;&gt;Jinja2 -->
<g id="edge5" class="edge">
<title>Flask-&gt;Jinja2</title>
<path fill="none" stroke="black" d="M504.14,-431.46C514.58,-434.7 525.93,-438.05 536.5,-440.8 570.3,-449.59 608.52,-457.7 639.34,-463.79"/>
<polygon fill="black" stroke="black" points="638.37,-467.17 648.86,-465.65 639.71,-460.3 638.37,-467.17"/>
<text xml:space="preserve" text-anchor="middle" x="568.19" y="-459.56" font-family="Times,serif" font-size="14.00">depends on</text>
</g>
<!-- Click -->
<g id="node7" class="node">
<title>Click</title>
<ellipse fill="wheat" stroke="black" cx="699.45" cy="-420.8" rx="51.53" ry="18"/>
<text xml:space="preserve" text-anchor="middle" x="699.45" y="-416.6" font-family="Times,serif" font-size="14.00">click 8.3.1</text>
</g>
<!-- Flask&#45;&gt;Click -->
<g id="edge6" class="edge">
<title>Flask-&gt;Click</title>
<path fill="none" stroke="black" d="M518.89,-419.26C553.89,-419.56 599.87,-419.95 636.54,-420.27"/>
<polygon fill="black" stroke="black" points="636.05,-423.76 646.08,-420.35 636.11,-416.76 636.05,-423.76"/>
<text xml:space="preserve" text-anchor="middle" x="568.19" y="-424.12" font-family="Times,serif" font-size="14.00">depends on</text>
</g>
<!-- Blinker -->
<g id="node8" class="node">
<title>Blinker</title>
<ellipse fill="wheat" stroke="black" cx="699.45" cy="-366.8" rx="60.12" ry="18"/>
<text xml:space="preserve" text-anchor="middle" x="699.45" y="-362.6" font-family="Times,serif" font-size="14.00">blinker 1.9.0</text>
</g>
<!-- Flask&#45;&gt;Blinker -->
<g id="edge7" class="edge">
<title>Flask-&gt;Blinker</title>
<path fill="none" stroke="black" d="M506.04,-406.95C515.96,-404.19 526.58,-401.37 536.5,-399 569.13,-391.2 605.78,-383.8 635.95,-378.07"/>
<polygon fill="black" stroke="black" points="636.51,-381.52 645.69,-376.23 635.21,-374.64 636.51,-381.52"/>
<text xml:space="preserve" text-anchor="middle" x="568.19" y="-403.2" font-family="Times,serif" font-size="14.00">depends on</text>
</g>
<!-- ItsDangerous -->
<g id="node9" class="node">
<title>ItsDangerous</title>
<ellipse fill="wheat" stroke="black" cx="699.45" cy="-312.8" rx="81.58" ry="18"/>
<text xml:space="preserve" text-anchor="middle" x="699.45" y="-308.6" font-family="Times,serif" font-size="14.00">itsdangerous 2.2.0</text>
</g>
<!-- Flask&#45;&gt;ItsDangerous -->
<g id="edge8" class="edge">
<title>Flask-&gt;ItsDangerous</title>
<path fill="none" stroke="black" d="M495.83,-403.72C503.61,-399.14 511.7,-393.73 518.5,-387.8 528.23,-379.31 525.9,-372.37 536.5,-365 562.42,-346.99 594.92,-334.92 623.99,-326.97"/>
<polygon fill="black" stroke="black" points="624.68,-330.41 633.47,-324.5 622.92,-323.63 624.68,-330.41"/>
<text xml:space="preserve" text-anchor="middle" x="568.19" y="-369.2" font-family="Times,serif" font-size="14.00">depends on</text>
</g>
<!-- MarkupSafe -->
<g id="node10" class="node">
<title>MarkupSafe</title>
<ellipse fill="wheat" stroke="black" cx="960.91" cy="-474.8" rx="80.5" ry="18"/>
<text xml:space="preserve" text-anchor="middle" x="960.91" y="-470.6" font-family="Times,serif" font-size="14.00">MarkupSafe 3.0.3</text>
</g>
<!-- Jinja2&#45;&gt;MarkupSafe -->
<g id="edge9" class="edge">
<title>Jinja2-&gt;MarkupSafe</title>
<path fill="none" stroke="black" d="M755.48,-474.8C788.51,-474.8 831.35,-474.8 869.27,-474.8"/>
<polygon fill="black" stroke="black" points="868.83,-478.3 878.83,-474.8 868.83,-471.3 868.83,-478.3"/>
<text xml:space="preserve" text-anchor="middle" x="830.72" y="-479" font-family="Times,serif" font-size="14.00">depends on</text>
</g>
<!-- UsersTable -->
<g id="node13" class="node">
<title>UsersTable</title>
<polygon fill="orange" stroke="black" points="737.19,-654.8 734.19,-658.8 713.19,-658.8 710.19,-654.8 661.71,-654.8 661.71,-618.8 737.19,-618.8 737.19,-654.8"/>
<text xml:space="preserve" text-anchor="middle" x="699.45" y="-632.6" font-family="Times,serif" font-size="14.00">users table</text>
</g>
<!-- Database&#45;&gt;UsersTable -->
<g id="edge12" class="edge">
<title>Database-&gt;UsersTable</title>
<path fill="none" stroke="black" d="M512.04,-597.17C520.16,-599.51 528.55,-601.81 536.5,-603.8 574.48,-613.29 617.97,-622.04 650.31,-628.14"/>
<polygon fill="black" stroke="black" points="649.3,-631.51 659.77,-629.9 650.58,-624.63 649.3,-631.51"/>
<text xml:space="preserve" text-anchor="middle" x="568.19" y="-622.07" font-family="Times,serif" font-size="14.00">contains</text>
</g>
<!-- PagesTable -->
<g id="node14" class="node">
<title>PagesTable</title>
<polygon fill="orange" stroke="black" points="738.75,-600.8 735.75,-604.8 714.75,-604.8 711.75,-600.8 660.16,-600.8 660.16,-564.8 738.75,-564.8 738.75,-600.8"/>
<text xml:space="preserve" text-anchor="middle" x="699.45" y="-578.6" font-family="Times,serif" font-size="14.00">pages table</text>
</g>
<!-- Database&#45;&gt;PagesTable -->
<g id="edge13" class="edge">
<title>Database-&gt;PagesTable</title>
<path fill="none" stroke="black" d="M512.33,-582.8C551.67,-582.8 607.92,-582.8 648.27,-582.8"/>
<polygon fill="black" stroke="black" points="648.21,-586.3 658.21,-582.8 648.21,-579.3 648.21,-586.3"/>
<text xml:space="preserve" text-anchor="middle" x="568.19" y="-587" font-family="Times,serif" font-size="14.00">contains</text>
</g>
<!-- Schema -->
<g id="node12" class="node">
<title>Schema</title>
<polygon fill="lightyellow" stroke="black" points="277.76,-600.8 205.94,-600.8 205.94,-564.8 283.76,-564.8 283.76,-594.8 277.76,-600.8"/>
<polyline fill="none" stroke="black" points="277.76,-600.8 277.76,-594.8"/>
<polyline fill="none" stroke="black" points="283.76,-594.8 277.76,-594.8"/>
<text xml:space="preserve" text-anchor="middle" x="244.85" y="-578.6" font-family="Times,serif" font-size="14.00">schema.sql</text>
</g>
<!-- Schema&#45;&gt;Database -->
<g id="edge11" class="edge">
<title>Schema-&gt;Database</title>
<path fill="none" stroke="black" stroke-dasharray="5,2" d="M284.06,-582.8C317.84,-582.8 367.61,-582.8 406.21,-582.8"/>
<polygon fill="black" stroke="black" points="405.78,-586.3 415.78,-582.8 405.78,-579.3 405.78,-586.3"/>
<text xml:space="preserve" text-anchor="middle" x="359.3" y="-587" font-family="Times,serif" font-size="14.00">creates</text>
</g>
<!-- SearchHTML -->
<g id="node16" class="node">
<title>SearchHTML</title>
<polygon fill="none" stroke="black" points="733.91,-276.8 658.99,-276.8 658.99,-240.8 739.91,-240.8 739.91,-270.8 733.91,-276.8"/>
<polyline fill="none" stroke="black" points="733.91,-276.8 733.91,-270.8"/>
<polyline fill="none" stroke="black" points="739.91,-270.8 733.91,-270.8"/>
<text xml:space="preserve" text-anchor="middle" x="699.45" y="-254.6" font-family="Times,serif" font-size="14.00">search.html</text>
</g>
<!-- Templates&#45;&gt;SearchHTML -->
<g id="edge15" class="edge">
<title>Templates-&gt;SearchHTML</title>
<path fill="none" stroke="black" d="M501.9,-213.18C541,-222.25 603.67,-236.8 647.72,-247.02"/>
<polygon fill="black" stroke="black" points="646.76,-250.39 657.29,-249.25 648.34,-243.57 646.76,-250.39"/>
</g>
<!-- LoginHTML -->
<g id="node17" class="node">
<title>LoginHTML</title>
<polygon fill="none" stroke="black" points="730.43,-222.8 662.48,-222.8 662.48,-186.8 736.43,-186.8 736.43,-216.8 730.43,-222.8"/>
<polyline fill="none" stroke="black" points="730.43,-222.8 730.43,-216.8"/>
<polyline fill="none" stroke="black" points="736.43,-216.8 730.43,-216.8"/>
<text xml:space="preserve" text-anchor="middle" x="699.45" y="-200.6" font-family="Times,serif" font-size="14.00">login.html</text>
</g>
<!-- Templates&#45;&gt;LoginHTML -->
<g id="edge16" class="edge">
<title>Templates-&gt;LoginHTML</title>
<path fill="none" stroke="black" d="M501.9,-204.8C541.97,-204.8 606.8,-204.8 650.96,-204.8"/>
<polygon fill="black" stroke="black" points="650.76,-208.3 660.76,-204.8 650.76,-201.3 650.76,-208.3"/>
</g>
<!-- RegisterHTML -->
<g id="node18" class="node">
<title>RegisterHTML</title>
<polygon fill="none" stroke="black" points="737.03,-168.8 655.88,-168.8 655.88,-132.8 743.03,-132.8 743.03,-162.8 737.03,-168.8"/>
<polyline fill="none" stroke="black" points="737.03,-168.8 737.03,-162.8"/>
<polyline fill="none" stroke="black" points="743.03,-162.8 737.03,-162.8"/>
<text xml:space="preserve" text-anchor="middle" x="699.45" y="-146.6" font-family="Times,serif" font-size="14.00">register.html</text>
</g>
<!-- Templates&#45;&gt;RegisterHTML -->
<g id="edge17" class="edge">
<title>Templates-&gt;RegisterHTML</title>
<path fill="none" stroke="black" d="M501.9,-196.42C540.06,-187.56 600.68,-173.5 644.51,-163.32"/>
<polygon fill="black" stroke="black" points="645.12,-166.77 654.07,-161.1 643.54,-159.95 645.12,-166.77"/>
</g>
<!-- AboutHTML -->
<g id="node19" class="node">
<title>AboutHTML</title>
<polygon fill="none" stroke="black" points="731.59,-114.8 661.32,-114.8 661.32,-78.8 737.59,-78.8 737.59,-108.8 731.59,-114.8"/>
<polyline fill="none" stroke="black" points="731.59,-114.8 731.59,-108.8"/>
<polyline fill="none" stroke="black" points="737.59,-108.8 731.59,-108.8"/>
<text xml:space="preserve" text-anchor="middle" x="699.45" y="-92.6" font-family="Times,serif" font-size="14.00">about.html</text>
</g>
<!-- Templates&#45;&gt;AboutHTML -->
<g id="edge18" class="edge">
<title>Templates-&gt;AboutHTML</title>
<path fill="none" stroke="black" d="M496.8,-186.32C527.02,-168.79 574.6,-142.42 617.88,-123.8 628.24,-119.34 639.61,-115.13 650.45,-111.43"/>
<polygon fill="black" stroke="black" points="651.24,-114.85 659.63,-108.38 649.04,-108.21 651.24,-114.85"/>
</g>
<!-- StyleCSS -->
<g id="node21" class="node">
<title>StyleCSS</title>
<polygon fill="none" stroke="black" points="724.98,-60.8 667.93,-60.8 667.93,-24.8 730.98,-24.8 730.98,-54.8 724.98,-60.8"/>
<polyline fill="none" stroke="black" points="724.98,-60.8 724.98,-54.8"/>
<polyline fill="none" stroke="black" points="730.98,-54.8 724.98,-54.8"/>
<text xml:space="preserve" text-anchor="middle" x="699.45" y="-38.6" font-family="Times,serif" font-size="14.00">style.css</text>
</g>
<!-- Static&#45;&gt;StyleCSS -->
<g id="edge20" class="edge">
<title>Static-&gt;StyleCSS</title>
<path fill="none" stroke="black" d="M492.04,-90.71C532,-81.44 608.51,-63.68 656.32,-52.58"/>
<polygon fill="black" stroke="black" points="657.1,-55.99 666.05,-50.32 655.52,-49.17 657.1,-55.99"/>
</g>
<!-- RunForever -->
<g id="node22" class="node">
<title>RunForever</title>
<polygon fill="pink" stroke="black" points="98.02,-329.8 0,-329.8 0,-293.8 98.02,-293.8 98.02,-329.8"/>
<text xml:space="preserve" text-anchor="middle" x="49.01" y="-307.6" font-family="Times,serif" font-size="14.00">run_forever.sh</text>
</g>
<!-- RunForever&#45;&gt;App -->
<g id="edge21" class="edge">
<title>RunForever-&gt;App</title>
<path fill="none" stroke="red" stroke-width="2" d="M98.42,-311.8C120.21,-311.8 146.39,-311.8 170.5,-311.8"/>
<polygon fill="red" stroke="red" stroke-width="2" points="168.75,-315.3 178.75,-311.8 168.75,-308.3 168.75,-315.3"/>
<text xml:space="preserve" text-anchor="middle" x="140.12" y="-316" font-family="Times,serif" font-size="14.00">executes</text>
</g>
</g>
</svg>